<svg xmlns="http://www.w3.org/2000/svg" xmlns:xlink="http://www.w3.org/1999/xlink" viewBox="0 0 100 125" version="1.1" x="0px" y="0px"><title>Delete 2.5</title><desc>Created with Sketch.</desc><g stroke="none" stroke-width="1" fill="none" fill-rule="evenodd"><g fill-rule="nonzero" fill="#000000"><path d="M69.0023118,28.8728113 L67.1477578,79.8730439 C67.1358061,80.2017166 66.8264977,80.5 66.4940966,80.5 L33.5059034,80.5 C33.1801101,80.5 32.863949,80.194981 32.8522422,79.8730439 L30.9976882,28.8728113 C30.9274439,26.9410915 29.3045312,25.4320674 27.3728113,25.5023118 C25.4410915,25.5725561 23.9320674,27.1954688 24.0023118,29.1271887 L25.8568657,80.1274212 C26.005437,84.2131333 29.412371,87.5 33.5059034,87.5 L66.4940966,87.5 C70.5935926,87.5 73.9942947,84.2205125 74.1431343,80.1274212 L75.9976882,29.1271887 C76.0679326,27.1954688 74.5589085,25.5725561 72.6271887,25.5023118 C70.6954688,25.4320674 69.0725561,26.9410915 69.0023118,28.8728113 Z"/><path d="M47.5,39 L47.5,73 C47.5,74.3807119 48.6192881,75.5 50,75.5 C51.3807119,75.5 52.5,74.3807119 52.5,73 L52.5,39 C52.5,37.6192881 51.3807119,36.5 50,36.5 C48.6192881,36.5 47.5,37.6192881 47.5,39 Z"/><path d="M36.0010806,39.0734976 L37.0010806,73.0734976 C37.0416722,74.4536127 38.1933826,75.539511 39.5734976,75.4989194 C40.9536127,75.4583278 42.039511,74.3066174 41.9989194,72.9265024 L40.9989194,38.9265024 C40.9583278,37.5463873 39.8066174,36.460489 38.4265024,36.5010806 C37.0463873,36.5416722 35.960489,37.6933826 36.0010806,39.0734976 Z"/><path d="M59.0010806,38.9265024 L58.0010806,72.9265024 C57.960489,74.3066174 59.0463873,75.4583278 60.4265024,75.4989194 C61.8066174,75.539511 62.9583278,74.4536127 62.9989194,73.0734976 L63.9989194,39.0734976 C64.039511,37.6933826 62.9536127,36.5416722 61.5734976,36.5010806 C60.1933826,36.460489 59.0416722,37.5463873 59.0010806,38.9265024 Z"/><path d="M25,30 L75,30 C76.9329966,30 78.5,28.4329966 78.5,26.5 C78.5,24.5670034 76.9329966,23 75,23 L25,23 C23.0670034,23 21.5,24.5670034 21.5,26.5 C21.5,28.4329966 23.0670034,30 25,30 Z"/><path d="M43.3954988,24.8488747 L44.4247919,20.7317021 C44.5716219,20.1443819 45.3958769,19.5 45.9962027,19.5 L54.0037973,19.5 C54.6050882,19.5 55.4280623,20.143119 55.5752081,20.7317021 L56.6045012,24.8488747 L63.3954988,23.1511253 L62.3662056,19.0339527 C61.4403133,15.3303835 57.8183825,12.5 54.0037973,12.5 L45.9962027,12.5 C42.1820122,12.5 38.559233,15.3321983 37.6337944,19.0339527 L36.6045012,23.1511253 L43.3954988,24.8488747 Z"/></g></g><text x="0" y="115" fill="#000000" font-size="5px" font-weight="bold" font-family="'Helvetica Neue', Helvetica, Arial-Unicode, Arial, Sans-serif">Created by Landan Lloyd</text><text x="0" y="120" fill="#000000" font-size="5px" font-weight="bold" font-family="'Helvetica Neue', Helvetica, Arial-Unicode, Arial, Sans-serif">from the Noun Project</text></svg>