<?xml version="1.0" encoding="utf-8"?>
<!-- Generator: Adobe Illustrator 21.1.0, SVG Export Plug-In . SVG Version: 6.00 Build 0)  -->
<svg version="1.1" id="Layer_1" xmlns="http://www.w3.org/2000/svg" xmlns:xlink="http://www.w3.org/1999/xlink" x="0px" y="0px"
	 viewBox="0 0 100 125" style="enable-background:new 0 0 100 125;" xml:space="preserve">
<rect x="63.3" y="27.5" width="1.5" height="4.7"/>
<rect x="35.2" y="27.5" width="1.5" height="4.7"/>
<rect x="35.2" y="67.8" width="1.5" height="4.7"/>
<rect x="63.3" y="67.8" width="1.5" height="4.7"/>
<rect x="27.5" y="35.2" width="4.7" height="1.5"/>
<rect x="109.2" y="27.3" width="1.5" height="4.7"/>
<rect x="101.5" y="35" width="4.7" height="1.5"/>
<rect x="27.5" y="63.3" width="4.7" height="1.5"/>
<rect x="109.2" y="68.5" width="1.5" height="4.7"/>
<rect x="101.5" y="64" width="4.7" height="1.5"/>
<rect x="142.4" y="64" width="4.7" height="1.5"/>
<rect x="137.7" y="68.5" width="1.5" height="4.7"/>
<path d="M36,65.3h28c0.3,0,0.6-0.1,0.9-0.4s0.4-0.6,0.4-0.9l0-28c0-0.7-0.6-1.2-1.2-1.2H36c-0.7,0-1.2,0.6-1.2,1.2v28
	C34.7,64.7,35.3,65.3,36,65.3z M37.2,37.2h25.5l0,25.5H37.2V37.2z"/>
<rect x="67.8" y="63.3" width="4.7" height="1.5"/>
<rect x="67.8" y="35.2" width="4.7" height="1.5"/>
<rect x="137.8" y="27.3" width="1.5" height="4.7"/>
<rect x="142.4" y="35" width="4.7" height="1.5"/>
<g>
	<path d="M124.3,38.2c6.6,0,12,5.4,12,12s-5.4,12-12,12s-12-5.4-12-12S117.6,38.2,124.3,38.2 M124.3,35.2c-8.3,0-15,6.7-15,15
		s6.7,15,15,15c8.3,0,15-6.7,15-15S132.6,35.2,124.3,35.2L124.3,35.2z"/>
</g>
<path d="M190.5,45.7h-6.5c-0.9,0-1.7-0.8-1.7-1.7V33c0-0.9,0.8-1.7,1.7-1.7H195c0.9,0,1.7,0.8,1.7,1.7v5l3,1.1V33
	c0-2.6-2.1-4.7-4.7-4.7h-11.1c-2.6,0-4.7,2.1-4.7,4.7V44c0,2.6,2.1,4.7,4.7,4.7h7.7L190.5,45.7z"/>
<path d="M194.6,42.6L221,52.7l-4.6,4.6l-2.1,2.1l2.1,2.1l2.4,2.4l-2.9,2.9l-2.4-2.4l-2.1-2.1l-2.1,2.1l-4.6,4.6L194.6,42.6
	 M194,39.3c-1.8,0-3.2,1.8-2.5,3.6l10.5,27.6c0.4,1.1,1.4,1.7,2.5,1.7c0.7,0,1.3-0.2,1.9-0.8l4.9-4.9l4.5,4.5l7.1-7.1l-4.5-4.5
	l4.9-4.9c1.4-1.4,0.9-3.7-0.9-4.4L195,39.5C194.7,39.4,194.3,39.3,194,39.3L194,39.3z"/>
</svg>
