<svg xmlns="http://www.w3.org/2000/svg" data-name="Layer 1" viewBox="0 0 100 125" x="0px" y="0px"><title>05</title><path d="M57.63,4.49H42.37a8,8,0,0,0-8,8v4.58H16.54a4,4,0,1,0,0,8h3.62l4.27,59.3a12,12,0,0,0,12,11.14H63.6a12,12,0,0,0,12-11.14l4.27-59.3h3.62a4,4,0,0,0,0-8H65.63V12.49A8,8,0,0,0,57.63,4.49Zm-15.27,8H57.63v4.58H42.37ZM67.59,83.8a4,4,0,0,1-4,3.71H36.4a4,4,0,0,1-4-3.71L28.18,25.07H71.81Z"/><text x="0" y="115" fill="#000000" font-size="5px" font-weight="bold" font-family="'Helvetica Neue', Helvetica, Arial-Unicode, Arial, Sans-serif">Created by Bhima</text><text x="0" y="120" fill="#000000" font-size="5px" font-weight="bold" font-family="'Helvetica Neue', Helvetica, Arial-Unicode, Arial, Sans-serif">from the Noun Project</text></svg>