<svg xmlns="http://www.w3.org/2000/svg" data-name="Layer 1" viewBox="0 0 1000 1250" x="0px" y="0px"><title>Icon ligne</title><path d="M200,406V201H405V354.25l45,15.36V178.5A22.5,22.5,0,0,0,427.5,156h-250A22.5,22.5,0,0,0,155,178.5v250A22.5,22.5,0,0,0,177.5,451h196l-14.92-45Z"/><path d="M803.3,682.09l-72.41-72.41,64.49-64.24a22.5,22.5,0,0,0-8.61-37.24l-375-128a22.5,22.5,0,0,0-28.62,28.38l125,377a22.5,22.5,0,0,0,37.21,8.89l65.2-64.71,72.54,72.54a22.5,22.5,0,0,0,31.82,0l88.39-88.39A22.5,22.5,0,0,0,803.3,682.09ZM699,754.57l-72.48-72.48a22.5,22.5,0,0,0-31.76-.06l-55.33,54.92L440.12,437.43,738,539.1l-54.82,54.6a22.5,22.5,0,0,0,0,31.85L755.57,698Z"/><text x="0" y="1015" fill="#000000" font-size="5px" font-weight="bold" font-family="'Helvetica Neue', Helvetica, Arial-Unicode, Arial, Sans-serif">Created by Bruno Bosse</text><text x="0" y="1020" fill="#000000" font-size="5px" font-weight="bold" font-family="'Helvetica Neue', Helvetica, Arial-Unicode, Arial, Sans-serif">from the Noun Project</text></svg>