<svg xmlns="http://www.w3.org/2000/svg" xmlns:xlink="http://www.w3.org/1999/xlink" version="1.1" x="0px" y="0px" viewBox="0 0 100 125" enable-background="new 0 0 100 100" xml:space="preserve"><g><path d="M70.9,38.122h-2.2V31.3h-6.819v-2.2H69.8c0.607,0,1.1,0.493,1.1,1.1V38.122z"/><path d="M31.3,38.122h-2.2V30.2c0-0.607,0.493-1.1,1.1-1.1h7.92v2.2H31.3V38.122z"/><rect x="46.041" y="29.1" width="7.919" height="2.2"/><rect x="46.041" y="68.7" width="7.919" height="2.2"/><path d="M69.8,70.9h-7.92v-2.2h6.82v-6.819h2.2V69.8C70.9,70.407,70.407,70.9,69.8,70.9z"/><rect x="68.7" y="46.042" width="2.2" height="7.919"/><path d="M38.12,70.9h-7.919c-0.607,0-1.1-0.493-1.1-1.1v-7.919h2.2V68.7h6.819V70.9z"/><rect x="29.1" y="46.042" width="2.2" height="7.919"/></g><text x="0" y="115" fill="#000000" font-size="5px" font-weight="bold" font-family="'Helvetica Neue', Helvetica, Arial-Unicode, Arial, Sans-serif">Created by Juan Pablo Bravo</text><text x="0" y="120" fill="#000000" font-size="5px" font-weight="bold" font-family="'Helvetica Neue', Helvetica, Arial-Unicode, Arial, Sans-serif">from the Noun Project</text></svg>