<?xml version="1.0" encoding="utf-8"?>
<!-- Generator: Adobe Illustrator 22.0.1, SVG Export Plug-In . SVG Version: 6.00 Build 0)  -->
<svg version="1.1" id="Layer_1" xmlns="http://www.w3.org/2000/svg" xmlns:xlink="http://www.w3.org/1999/xlink" x="0px" y="0px"
	 viewBox="0 0 200 200" style="enable-background:new 0 0 200 200;" xml:space="preserve">
<title>content_041-undo-edit-arrow-reload</title>
<desc>Created with Sketch.</desc>
<g>
	<g transform="translate(-44.000000, -236.000000)">
		<g transform="translate(46.473447, 237.263456)">
			<polygon points="175.9,48.7 175.9,15.4 167.6,15.4 167.6,40.4 142.6,40.4 142.6,48.7 			"/>
			<path d="M48.2,38.1c34.2-34.2,89.6-34.2,123.7,0c1.6,1.6,1.6,4.3,0,5.9s-4.3,1.6-5.9,0C135.1,13,85,13,54,44s-30.9,81,0,112
				s81,30.9,112,0c1.6-1.6,4.3-1.6,5.9,0s1.6,4.3,0,5.9c-34.2,34.2-89.6,34.2-123.7,0S14,72.2,48.2,38.1z"/>
		</g>
	</g>
</g>
</svg>
