<?xml version="1.0" encoding="UTF-8"?>
<svg width="27px" height="27px" viewBox="0 0 27 27" version="1.1" xmlns="http://www.w3.org/2000/svg" xmlns:xlink="http://www.w3.org/1999/xlink">
    <!-- Generator: Sketch 46.2 (44496) - http://www.bohemiancoding.com/sketch -->
    <title>select</title>
    <desc>Created with Sketch.</desc>
    <defs>
        <polygon id="path-1" points="0 0.0644878646 0 11.9580092 11.8939878 11.9580092 11.8939878 0.0644878646 7.90211154e-21 0.0644878646"></polygon>
    </defs>
    <g id="Page-1" stroke="none" stroke-width="1" fill="none" fill-rule="evenodd">
        <g id="Desktop" transform="translate(-809.000000, -227.000000)">
            <g id="select" transform="translate(809.125000, 227.000000)">
                <g id="Group-3" transform="translate(0.000000, 0.518935)">
                    <mask id="mask-2" fill="white">
                        <use xlink:href="#path-1"></use>
                    </mask>
                    <g id="Clip-2"></g>
                    <path d="M6.53962922,10.2087905 L2.7251662,10.2087905 C2.1869899,10.2087905 1.74910214,9.77090271 1.74910214,9.23330948 L1.74910214,2.7891876 C1.74910214,2.2510113 2.1869899,1.81370661 2.7251662,1.81370661 L9.16928807,1.81370661 C9.7068813,1.81370661 10.1447691,2.2510113 10.1447691,2.7891876 L10.1447691,5.71446443 L11.8939878,6.38383214 L11.8939878,2.7891876 C11.8939878,1.28427641 10.6741993,0.0644878646 9.16928807,0.0644878646 L2.7251662,0.0644878646 C1.220255,0.0644878646 -0.000116614583,1.28427641 -0.000116614583,2.7891876 L-0.000116614583,9.23330948 C-0.000116614583,10.7376376 1.220255,11.9580092 2.7251662,11.9580092 L7.20899693,11.9580092 L6.53962922,10.2087905 Z" id="Fill-1" fill="#000000" mask="url(#mask-2)"></path>
                </g>
                <path d="M8.6105293,7.00352203 C7.58665326,7.00352203 6.7633543,8.04955484 7.17033919,9.11249677 L13.3194262,25.1767387 C13.5643168,25.8175358 14.1625496,26.1737934 14.7718608,26.1737934 C15.1613535,26.1737934 15.5549277,26.0286082 15.8645395,25.7195796 L18.7385059,22.8450301 L21.3553371,25.4630275 L25.5231423,21.2952223 L22.9063111,18.677808 L25.7796944,15.8038416 C26.5744228,15.0096963 26.2863848,13.6604655 25.2380197,13.2593114 L9.17319466,7.1096413 C8.98311289,7.03675719 8.79361419,7.00352203 8.6105293,7.00352203 M8.96270534,8.90200745 L24.3266767,14.783464 L21.6690303,17.4411103 L20.4317496,18.677808 L21.6690303,19.9150887 L23.049747,21.2952223 L21.3553371,22.9890491 L19.9752035,21.6083324 L18.7385059,20.3716348 L17.5018082,21.6083324 L14.8435788,24.2665619 L8.96270534,8.90200745" id="Fill-4" fill="#000000"></path>
            </g>
        </g>
    </g>
</svg>