<svg height='200' width='200'  fill="#000000" xmlns="http://www.w3.org/2000/svg" xmlns:xlink="http://www.w3.org/1999/xlink" viewBox="0 0 24 24" version="1.1" x="0px" y="0px"><title>content_041-undo-edit-arrow-reload</title><desc>Created with Sketch.</desc><g stroke="none" stroke-width="1" fill="none" fill-rule="evenodd"><g transform="translate(-44.000000, -236.000000)" fill="#000000"><g transform="translate(46.473447, 237.263456)"><polygon points="0.526552578 4.73654403 0.526552578 0.736544033 1.52655258 0.736544033 1.52655258 3.73654403 4.52655258 3.73654403 4.52655258 4.73654403"></polygon><path d="M15.861109,3.45511623 C11.7606039,-0.645388832 5.11237162,-0.645388832 1.01186656,3.45511623 C0.816604415,3.65037838 0.816604415,3.96696087 1.01186656,4.16222301 C1.20712871,4.35748516 1.5237112,4.35748516 1.71897334,4.16222301 C5.42895411,0.452242241 11.4440214,0.452242241 15.1540022,4.16222301 C18.863983,7.87220378 18.863983,13.8872711 15.1540022,17.5972519 C11.4440214,21.3072326 5.42895411,21.3072326 1.71897334,17.5972519 C1.5237112,17.4019897 1.20712871,17.4019897 1.01186656,17.5972519 C0.816604415,17.792514 0.816604415,18.1090965 1.01186656,18.3043586 C5.11237162,22.4048637 11.7606039,22.4048637 15.861109,18.3043586 C19.961614,14.2038536 19.961614,7.55562129 15.861109,3.45511623 Z"></path></g></g></g></svg>