<?xml version="1.0" encoding="UTF-8"?>
<svg width="31px" height="30px" viewBox="0 0 31 30" version="1.1" xmlns="http://www.w3.org/2000/svg" xmlns:xlink="http://www.w3.org/1999/xlink">
    <!-- Generator: Sketch 46.2 (44496) - http://www.bohemiancoding.com/sketch -->
    <title>circle</title>
    <desc>Created with Sketch.</desc>
    <defs></defs>
    <g id="Page-1" stroke="none" stroke-width="1" fill="none" fill-rule="evenodd">
        <g id="Desktop" transform="translate(-917.000000, -227.000000)" fill="#000000">
            <g id="circle" transform="translate(917.894531, 227.000000)">
                <polygon id="Fill-1" points="5.04456522 3.0888913 6.02282609 3.0888913 6.02282609 0.000195652174 5.04456522 0.000195652174"></polygon>
                <polygon id="Fill-2" points="0.000652173913 6.02432609 3.08804348 6.02432609 3.08804348 5.04606522 0.000652173913 5.04606522"></polygon>
                <polygon id="Fill-3" points="5.04456522 29.9884565 6.02282609 29.9884565 6.02282609 26.900413 5.04456522 26.900413"></polygon>
                <polygon id="Fill-4" points="0 24.9373696 3.08804348 24.9373696 3.08804348 23.9591087 0 23.9591087"></polygon>
                <polygon id="Fill-5" points="26.6628261 24.9301957 29.7502174 24.9301957 29.7502174 23.9519348 26.6628261 23.9519348"></polygon>
                <polygon id="Fill-6" points="23.5702174 29.9812826 24.5484783 29.9812826 24.5484783 26.892587 23.5702174 26.892587"></polygon>
                <polygon id="Fill-7" points="23.6621739 3.0888913 24.6404348 3.0888913 24.6404348 0.000195652174 23.6621739 0.000195652174"></polygon>
                <polygon id="Fill-8" points="26.6621739 6.02432609 29.7508696 6.02432609 29.7508696 5.04606522 26.6621739 5.04606522"></polygon>
                <path d="M14.8424348,5.19326087 C9.43134783,5.19326087 5.04482609,9.57978261 5.04482609,14.9908696 C5.04482609,20.4026087 9.43134783,24.7891304 14.8424348,24.7891304 C20.2535217,24.7891304 24.6400435,20.4026087 24.6400435,14.9908696 C24.6400435,9.57978261 20.2535217,5.19326087 14.8424348,5.19326087 M14.8424348,7.14978261 C19.1663478,7.14978261 22.6835217,10.6676087 22.6835217,14.9908696 C22.6835217,19.3147826 19.1663478,22.8326087 14.8424348,22.8326087 C10.5185217,22.8326087 7.00134783,19.3147826 7.00134783,14.9908696 C7.00134783,10.6676087 10.5185217,7.14978261 14.8424348,7.14978261" id="Fill-9"></path>
            </g>
        </g>
    </g>
</svg>