<svg xmlns="http://www.w3.org/2000/svg" xmlns:xlink="http://www.w3.org/1999/xlink" width="1200" height="1200" viewBox="0 0 1200 1200"><g><g transform="translate(600 600) scale(0.69 0.69) rotate(0) translate(-600 -600)" style="fill:#A2A2A2;"><svg fill="#A2A2A2" xmlns="http://www.w3.org/2000/svg" xmlns:xlink="http://www.w3.org/1999/xlink" version="1.1" viewBox="0 0 24 24" x="0px" y="0px"><path d="M12,4V12H20V6C20,4.9 19.1,4 18,4H12M20,13H12V21H18C19.1,21 20,20.1 20,19V13M11,21V13H3V19C3,20.1 3.9,21 5,21H11M3,12H11V4H5C3.9,4 3,4.9 3,6V12M5,3H18C19.66,3 21,4.34 21,6V19C21,20.66 19.66,22 18,22H5C3.34,22 2,20.66 2,19V6C2,4.34 3.34,3 5,3Z"></path></svg></g></g></svg>